<svg width="23" height="30" viewBox="0 0 23 30" fill="none" xmlns="http://www.w3.org/2000/svg">
<g clip-path="url(#clip0_50_58695)">
<path d="M18.9238 15.7441C18.9121 13.5937 19.8848 11.9707 21.8535 10.7754C20.752 9.19922 19.0879 8.33203 16.8906 8.16211C14.8105 7.99805 12.5371 9.375 11.7051 9.375C10.8262 9.375 8.81055 8.2207 7.22851 8.2207C3.95898 8.27344 0.484375 10.8281 0.484375 16.0254C0.484375 17.5605 0.765625 19.1465 1.32812 20.7832C2.07812 22.9336 4.78516 28.207 7.60937 28.1191C9.08594 28.084 10.1289 27.0703 12.0508 27.0703C13.9141 27.0703 14.8809 28.1191 16.5273 28.1191C19.375 28.0781 21.8242 23.2852 22.5391 21.1289C18.7187 19.3301 18.9238 15.8555 18.9238 15.7441ZM15.6074 6.12305C17.207 4.22461 17.0605 2.49609 17.0137 1.875C15.6016 1.95703 13.9668 2.83594 13.0352 3.91992C12.0098 5.08008 11.4062 6.51562 11.5352 8.13281C13.0645 8.25 14.459 7.46484 15.6074 6.12305Z" fill="#F0F4F7"/>
</g>
<defs>
<clipPath id="clip0_50_58695">
<rect width="22.5" height="30" fill="white" transform="translate(0.25)"/>
</clipPath>
</defs>
</svg>
