<svg width="23" height="24" viewBox="0 0 23 24" fill="none" xmlns="http://www.w3.org/2000/svg">
<path d="M21.5 12C21.5 17.5228 17.0228 22 11.5 22M21.5 12C21.5 6.47715 17.0228 2 11.5 2M21.5 12H1.5M11.5 22C5.97715 22 1.5 17.5228 1.5 12M11.5 22C13.3409 22 14.8333 17.5228 14.8333 12C14.8333 6.47715 13.3409 2 11.5 2M11.5 22C9.65905 22 8.16667 17.5228 8.16667 12C8.16667 6.47715 9.65905 2 11.5 2M1.5 12C1.5 6.47715 5.97715 2 11.5 2" stroke="url(#paint0_linear_2646_9762)" stroke-width="2.67" stroke-linecap="round" stroke-linejoin="round"/>
<defs>
<linearGradient id="paint0_linear_2646_9762" x1="1.5" y1="12.4255" x2="21.5" y2="12.4255" gradientUnits="userSpaceOnUse">
<stop stop-color="#165290"/>
<stop offset="1" stop-color="#168DBC"/>
</linearGradient>
</defs>
</svg>
