<svg width="17" height="18" viewBox="0 0 17 18" fill="none" xmlns="http://www.w3.org/2000/svg">
<path d="M12.0417 10.4167C12.2295 10.4167 12.4097 10.342 12.5425 10.2092C12.6754 10.0764 12.75 9.89619 12.75 9.70833C12.75 9.52047 12.6754 9.3403 12.5425 9.20747C12.4097 9.07463 12.2295 9 12.0417 9C11.8538 9 11.6736 9.07463 11.5408 9.20747C11.408 9.3403 11.3333 9.52047 11.3333 9.70833C11.3333 9.89619 11.408 10.0764 11.5408 10.2092C11.6736 10.342 11.8538 10.4167 12.0417 10.4167ZM12.0417 13.25C12.2295 13.25 12.4097 13.1754 12.5425 13.0425C12.6754 12.9097 12.75 12.7295 12.75 12.5417C12.75 12.3538 12.6754 12.1736 12.5425 12.0408C12.4097 11.908 12.2295 11.8333 12.0417 11.8333C11.8538 11.8333 11.6736 11.908 11.5408 12.0408C11.408 12.1736 11.3333 12.3538 11.3333 12.5417C11.3333 12.7295 11.408 12.9097 11.5408 13.0425C11.6736 13.1754 11.8538 13.25 12.0417 13.25ZM9.20833 9.70833C9.20833 9.89619 9.13371 10.0764 9.00087 10.2092C8.86803 10.342 8.68786 10.4167 8.5 10.4167C8.31214 10.4167 8.13197 10.342 7.99913 10.2092C7.86629 10.0764 7.79167 9.89619 7.79167 9.70833C7.79167 9.52047 7.86629 9.3403 7.99913 9.20747C8.13197 9.07463 8.31214 9 8.5 9C8.68786 9 8.86803 9.07463 9.00087 9.20747C9.13371 9.3403 9.20833 9.52047 9.20833 9.70833ZM9.20833 12.5417C9.20833 12.7295 9.13371 12.9097 9.00087 13.0425C8.86803 13.1754 8.68786 13.25 8.5 13.25C8.31214 13.25 8.13197 13.1754 7.99913 13.0425C7.86629 12.9097 7.79167 12.7295 7.79167 12.5417C7.79167 12.3538 7.86629 12.1736 7.99913 12.0408C8.13197 11.908 8.31214 11.8333 8.5 11.8333C8.68786 11.8333 8.86803 11.908 9.00087 12.0408C9.13371 12.1736 9.20833 12.3538 9.20833 12.5417ZM4.95833 10.4167C5.14619 10.4167 5.32636 10.342 5.4592 10.2092C5.59204 10.0764 5.66667 9.89619 5.66667 9.70833C5.66667 9.52047 5.59204 9.3403 5.4592 9.20747C5.32636 9.07463 5.14619 9 4.95833 9C4.77047 9 4.5903 9.07463 4.45747 9.20747C4.32463 9.3403 4.25 9.52047 4.25 9.70833C4.25 9.89619 4.32463 10.0764 4.45747 10.2092C4.5903 10.342 4.77047 10.4167 4.95833 10.4167ZM4.95833 13.25C5.14619 13.25 5.32636 13.1754 5.4592 13.0425C5.59204 12.9097 5.66667 12.7295 5.66667 12.5417C5.66667 12.3538 5.59204 12.1736 5.4592 12.0408C5.32636 11.908 5.14619 11.8333 4.95833 11.8333C4.77047 11.8333 4.5903 11.908 4.45747 12.0408C4.32463 12.1736 4.25 12.3538 4.25 12.5417C4.25 12.7295 4.32463 12.9097 4.45747 13.0425C4.5903 13.1754 4.77047 13.25 4.95833 13.25Z" fill="#17508F"/>
<path fill-rule="evenodd" clip-rule="evenodd" d="M4.95795 1.73956C5.09885 1.73956 5.23397 1.79553 5.3336 1.89516C5.43323 1.99479 5.4892 2.12992 5.4892 2.27081V2.81127C5.95812 2.80206 6.47449 2.80206 7.04258 2.80206H9.95595C10.5247 2.80206 11.0411 2.80206 11.51 2.81127V2.27081C11.51 2.12992 11.566 1.99479 11.6656 1.89516C11.7653 1.79553 11.9004 1.73956 12.0413 1.73956C12.1822 1.73956 12.3173 1.79553 12.4169 1.89516C12.5166 1.99479 12.5725 2.12992 12.5725 2.27081V2.8566C12.7567 2.87077 12.931 2.88848 13.096 2.91044C13.9262 3.02235 14.5984 3.25752 15.1289 3.78735C15.6587 4.3179 15.8939 4.9901 16.0058 5.82027C16.1142 6.62777 16.1142 7.6584 16.1142 8.96031V10.4563C16.1142 11.7582 16.1142 12.7896 16.0058 13.5964C15.8939 14.4265 15.6587 15.0987 15.1289 15.6293C14.5984 16.1591 13.9262 16.3943 13.096 16.5062C12.2885 16.6146 11.2579 16.6146 9.95595 16.6146H7.04399C5.74208 16.6146 4.71074 16.6146 3.90395 16.5062C3.07378 16.3943 2.40158 16.1591 1.87103 15.6293C1.3412 15.0987 1.10603 14.4265 0.994117 13.5964C0.885742 12.7889 0.885742 11.7582 0.885742 10.4563V8.96031C0.885742 7.6584 0.885742 6.62706 0.994117 5.82027C1.10603 4.9901 1.3412 4.3179 1.87103 3.78735C2.40158 3.25752 3.07378 3.02235 3.90395 2.91044C4.06899 2.88848 4.24395 2.87077 4.42741 2.8566V2.27081C4.42741 2.13004 4.48328 1.99502 4.58276 1.89541C4.68223 1.7958 4.81718 1.73975 4.95795 1.73956ZM4.0442 3.96373C3.33233 4.05935 2.92149 4.23927 2.62187 4.5389C2.32224 4.83852 2.14233 5.24935 2.0467 5.96194C2.03041 6.08235 2.01695 6.20985 2.00562 6.34373H14.9936C14.9823 6.20915 14.9688 6.08235 14.9525 5.96123C14.8569 5.24935 14.677 4.83852 14.3774 4.5389C14.0777 4.23927 13.6669 4.05935 12.9543 3.96373C12.2269 3.86598 11.2671 3.86456 9.91628 3.86456H7.08295C5.73216 3.86456 4.77308 3.86598 4.0442 3.96373ZM1.94753 8.99998C1.94753 8.39506 1.94753 7.86877 1.95674 7.40623H15.0425C15.0517 7.86877 15.0517 8.39506 15.0517 8.99998V10.4166C15.0517 11.7674 15.0503 12.7272 14.9525 13.4554C14.8569 14.1673 14.677 14.5781 14.3774 14.8777C14.0777 15.1774 13.6669 15.3573 12.9543 15.4529C12.2269 15.5506 11.2671 15.5521 9.91628 15.5521H7.08295C5.73216 15.5521 4.77308 15.5506 4.0442 15.4529C3.33233 15.3573 2.92149 15.1774 2.62187 14.8777C2.32224 14.5781 2.14233 14.1673 2.0467 13.4547C1.94895 12.7272 1.94753 11.7674 1.94753 10.4166V8.99998Z" fill="#17508F"/>
</svg>
