<svg width="55" height="56" viewBox="0 0 55 56" fill="none" xmlns="http://www.w3.org/2000/svg">
<path d="M24.625 33.0312H27.5V21.5312M39 20.8125V16.5M18.875 40.9375C23.1875 45.25 31.8125 45.25 36.125 40.9375M16 20.8125V16.5M20.025 53.875C13.585 53.875 10.365 53.875 7.904 52.6215C5.74023 51.519 3.98103 49.7598 2.8785 47.596C1.625 45.135 1.625 41.915 1.625 35.475M53.375 35.475C53.375 41.915 53.375 45.135 52.1215 47.596C51.019 49.7598 49.2598 51.519 47.096 52.6215C44.635 53.875 41.415 53.875 34.975 53.875M34.975 2.125C41.415 2.125 44.635 2.125 47.096 3.3785C49.2598 4.48103 51.019 6.24023 52.1215 8.404C53.375 10.865 53.375 14.085 53.375 20.525M20.025 2.125C13.585 2.125 10.365 2.125 7.904 3.3785C5.74023 4.48103 3.98103 6.24023 2.8785 8.404C1.625 10.865 1.625 14.085 1.625 20.525" stroke="#F0F4F7" stroke-width="3" stroke-linecap="round" stroke-linejoin="round"/>
</svg>
