<svg width="31" height="30" viewBox="0 0 31 30" fill="none" xmlns="http://www.w3.org/2000/svg">
<g clip-path="url(#clip0_29_58641)">
<path fill-rule="evenodd" clip-rule="evenodd" d="M6.96515 15C6.96515 14.0257 7.12687 13.0915 7.41585 12.2154L2.36038 8.35501C1.37507 10.3554 0.820068 12.6096 0.820068 15C0.820068 17.3885 1.3746 19.6411 2.35827 21.6403L7.41093 17.7724C7.12476 16.9003 6.96515 15.9696 6.96515 15Z" fill="#FBBC05"/>
<path fill-rule="evenodd" clip-rule="evenodd" d="M15.8414 6.13641C17.958 6.13641 19.8698 6.88641 21.3719 8.11359L25.7416 3.75C23.0789 1.4318 19.665 0 15.8414 0C9.90512 0 4.80324 3.39469 2.36035 8.355L7.41559 12.2154C8.58043 8.67961 11.9008 6.13641 15.8414 6.13641Z" fill="#EA4335"/>
<path fill-rule="evenodd" clip-rule="evenodd" d="M15.8414 23.8636C11.9011 23.8636 8.58066 21.3204 7.41582 17.7846L2.36035 21.6443C4.80324 26.6053 9.90512 30 15.8414 30C19.5051 30 23.0032 28.699 25.6284 26.2615L20.8298 22.5518C19.4758 23.4047 17.7707 23.8636 15.8414 23.8636Z" fill="#34A853"/>
<path fill-rule="evenodd" clip-rule="evenodd" d="M30.1799 15C30.1799 14.1136 30.0433 13.159 29.8384 12.2728H15.8416V18.0682H23.8984C23.4955 20.0442 22.3991 21.5632 20.83 22.5518L25.6286 26.2615C28.3862 23.7021 30.1799 19.8893 30.1799 15Z" fill="#4285F4"/>
</g>
<defs>
<clipPath id="clip0_29_58641">
<rect width="30" height="30" fill="white" transform="translate(0.5)"/>
</clipPath>
</defs>
</svg>
