<svg width="25" height="25" viewBox="0 0 25 25" fill="none" xmlns="http://www.w3.org/2000/svg">
<path d="M3.90625 7.29272H21.0938C21.5252 7.29272 21.875 7.6425 21.875 8.07397C21.875 8.50545 21.5252 8.85523 21.0938 8.85523H3.90625C3.47478 8.85523 3.125 8.50545 3.125 8.07397C3.125 7.6425 3.47478 7.29272 3.90625 7.29272Z" fill="black"/>
<path d="M7.03125 11.7198H21.0938C21.5252 11.7198 21.875 12.0696 21.875 12.501C21.875 12.9325 21.5252 13.2823 21.0938 13.2823H7.03125C6.59978 13.2823 6.25 12.9325 6.25 12.501C6.25 12.0696 6.59978 11.7198 7.03125 11.7198Z" fill="black"/>
<path d="M3.90625 16.1448H21.0938C21.5252 16.1448 21.875 16.4946 21.875 16.926C21.875 17.3575 21.5252 17.7073 21.0938 17.7073H3.90625C3.47478 17.7073 3.125 17.3575 3.125 16.926C3.125 16.4946 3.47478 16.1448 3.90625 16.1448Z" fill="black"/>
</svg>
