<svg width="16" height="16" viewBox="0 0 16 16" fill="none" xmlns="http://www.w3.org/2000/svg">
<path d="M15.4666 3.73336L15.8442 4.11096C15.8939 4.06142 15.9333 4.00257 15.9602 3.93777C15.9871 3.87298 16.0009 3.80351 16.0009 3.73336C16.0009 3.66321 15.9871 3.59375 15.9602 3.52895C15.9333 3.46416 15.8939 3.4053 15.8442 3.35576L15.4666 3.73336ZM0.53331 12.2667L0.15571 11.8891C0.106043 11.9386 0.066637 11.9975 0.0397501 12.0623C0.0128632 12.1271 -0.000976563 12.1965 -0.000976562 12.2667C-0.000976562 12.3368 0.0128632 12.4063 0.0397501 12.4711C0.066637 12.5359 0.106043 12.5948 0.15571 12.6443L0.53331 12.2667ZM11.889 0.910962L15.089 4.11096L15.8442 3.35576L12.6442 0.155762L11.889 0.910962ZM15.089 3.35576L11.889 6.55576L12.6442 7.31096L15.8442 4.11096L15.089 3.35576ZM4.11091 15.0891L0.91091 11.8891L0.15571 12.6443L3.35571 15.8443L4.11091 15.0891ZM0.91091 12.6443L4.11091 9.4443L3.35571 8.6891L0.15571 11.8891L0.91091 12.6443ZM0.53331 12.8H12.2666V11.7334H0.53331V12.8ZM16 9.0667V7.4667H14.9333V9.0667H16ZM12.2666 12.8C13.2568 12.8 14.2064 12.4067 14.9065 11.7066C15.6066 11.0064 16 10.0568 16 9.0667H14.9333C14.9333 9.77394 14.6524 10.4522 14.1523 10.9523C13.6522 11.4524 12.9739 11.7334 12.2666 11.7334V12.8ZM15.4666 3.20003H3.73331V4.2667H15.4666V3.20003ZM-2.31932e-05 6.93336V8.53336H1.06664V6.93336H-2.31932e-05ZM3.73331 3.20003C2.74317 3.20003 1.79358 3.59336 1.09344 4.2935C0.393309 4.99363 -2.31932e-05 5.94322 -2.31932e-05 6.93336H1.06664C1.06664 6.22612 1.3476 5.54784 1.84769 5.04774C2.34779 4.54765 3.02607 4.2667 3.73331 4.2667V3.20003Z" fill="#17508F"/>
</svg>
